<?xml version="1.0" encoding="UTF-8"?> <svg xmlns="http://www.w3.org/2000/svg" id="Слой_1" data-name="Слой 1" viewBox="0 0 1984.25 1984.25"><defs><style>.cls-1,.cls-3{fill:#9dbf50;}.cls-1,.cls-2{fill-rule:evenodd;}.cls-2,.cls-4{fill:#6c5fa2;}</style></defs><title>boardМонтажная область 1</title><path class="cls-1" d="M864.58,1206.76c-28.45-25-55.65-51.41-81.83-78.8-16.38-17.13-32.33-34.69-48-52.45a916.68,916.68,0,0,1-65.64-83.66c-20.3-29.15-38.63-59.45-53.74-91.65a383.22,383.22,0,0,1-21.42-55.92c-7.81-26.91-12.48-54.28-11.17-82.45q2.93-62.87,43.34-111.07a239,239,0,0,1,55.25-48.13c6.5-4.14,14.07-6.68,21.32-9.55a130.37,130.37,0,0,1,30.26-7.67,116.39,116.39,0,0,1,27.73-.57c28.65,2.89,53.21,15,75.18,33,20.62,17,37.08,37.52,51.53,59.78,12.11,18.64,35.27,74.4,35.27,79.65-1.92.11-46.6-44.1-75.2-54.75-33.94-12.63-66.52-8.66-97.79,8.91a179.8,179.8,0,0,0-45.25,36.3c-12.57,13.85-21.2,30.15-26.79,48-6.43,20.6-7.64,41.68-5.74,63,2.67,30.12,11.56,58.59,23.24,86.29,14.48,34.35,33,66.48,53.59,97.49A918.44,918.44,0,0,0,811.89,1127c15.8,18.74,32.05,37.11,48.41,55.36,19.06,21.25,39.26,41.42,59.88,61.17.79.75,26.24,22.06,27.05,22.79C947.23,1270.6,882.33,1222.37,864.58,1206.76Z"></path><path class="cls-2" d="M1371.1,418a80.32,80.32,0,0,1-80.32,80.32h0A80.31,80.31,0,0,1,1210.47,418h0a80.31,80.31,0,0,1,80.31-80.32h0A80.32,80.32,0,0,1,1371.1,418Z"></path><path class="cls-1" d="M708.82,471a75.91,75.91,0,0,1-75.91,75.92h0A75.92,75.92,0,0,1,557,471h0a75.92,75.92,0,0,1,75.91-75.91h0A75.91,75.91,0,0,1,708.82,471Z"></path><path class="cls-2" d="M978.27,1268c36.26-31.9,70.91-65.52,104.28-100.41,20.88-21.84,41.2-44.22,61.22-66.85a1170.7,1170.7,0,0,0,83.64-106.6c25.87-37.14,49.23-75.76,68.48-116.79a488.24,488.24,0,0,0,27.3-71.26c10-34.29,15.9-69.17,14.23-105.07q-3.72-80.09-55.23-141.52a304.47,304.47,0,0,0-70.4-61.34c-8.29-5.27-17.94-8.51-27.17-12.17a166.35,166.35,0,0,0-38.56-9.77,148.68,148.68,0,0,0-35.34-.73c-36.5,3.69-67.8,19.13-95.79,42.12-26.29,21.6-47.25,47.8-65.67,76.17-15.43,23.76-44.94,94.81-44.94,101.51,2.44.13,59.37-56.21,95.82-69.77,43.25-16.1,84.77-11,124.62,11.34a229.43,229.43,0,0,1,57.66,46.26c16,17.66,27,38.42,34.13,61.19,8.2,26.25,9.74,53.12,7.32,80.33-3.41,38.39-14.73,74.66-29.61,110-18.46,43.77-42.08,84.72-68.3,124.23a1169.11,1169.11,0,0,1-80.55,107.58c-20.13,23.88-40.83,47.28-61.68,70.54-24.29,27.08-50,52.78-76.3,78-1,1-33.44,28.11-34.48,29C873,1349.33,955.66,1287.88,978.27,1268Z"></path><path class="cls-3" d="M328,1601.52v-69.6H211.74v69.6H178V1443.86h33.74v64.23H328v-64.23h34v157.66Z"></path><path class="cls-3" d="M441.67,1601.52c-43,0-62.48-15.42-62.48-59.33,0-43.67,16.49-59.09,62.48-59.09H491.9c30.74,0,45.49,13.55,45.49,36.67,0,23.36-13.25,34.1-33.74,34.1H411.43c2.5,19.85,12.25,26.16,35,26.16h84.72v21.49Zm4.75-97.63c-25,0-33.24,6.3-35.24,30.13H490.4c10.75,0,16-4,16-14.72s-6-15.41-17.75-15.41Z"></path><path class="cls-3" d="M585.38,1601.52c-27.5,0-36.49-15.88-36.49-37.14,0-21.49,9-35.27,36.49-35.27h87c-2.75-19.38-13-24.52-35.74-24.52h-83V1483.1h85.72c46.23,0,65.73,15.42,65.73,59.33v59.09Zm88-53.26H595.62c-12.24,0-16.49,5.61-16.49,15.42,0,10.51,4.5,16.35,16.49,16.35h77.73Z"></path><path class="cls-3" d="M724.58,1601.52v-162.8h32.74v162.8Z"></path><path class="cls-3" d="M838.55,1601.52c-48,0-62-7.71-62-42V1441.06h33v42h48v21.49h-48v53.25c0,18,7.24,22.42,32.49,22.42h12.49v21.26Z"></path><path class="cls-3" d="M1004,1601.52v-63.77c0-19.61-11-32-35-32H905.53v95.76H872.79v-162.8h32.74v44.38h68.72c37.74,0,62.48,16.82,62.48,54.65v63.77Z"></path><path class="cls-3" d="M1070.23,1645.9l34.48-53L1031,1483.1h35.24l55,84.32,53.23-84.32h35L1105,1645.9Z"></path><path class="cls-4" d="M1290.41,1601.52c-46,0-71.48-25.23-71.48-78.71s25.49-79,71.48-79h97v24.29h-92c-32,0-42.74,18.69-42.74,54.66,0,35.73,10.75,54.42,42.74,54.42h92v24.29Z"></path><path class="cls-4" d="M1405.38,1601.52v-162.8h32.74v162.8Z"></path><path class="cls-4" d="M1519.59,1601.52c-38,0-62.48-16.59-62.48-54.66V1483.1h33v63.76c0,19.86,11,32.24,34.74,32.24h60.73v-96h33v118.42Z"></path><path class="cls-4" d="M1701,1601.52c-43,0-63.73-21-63.73-53V1438.72h33v44.38h65.48c45.74,0,70.23,21,70.23,59.09,0,38.31-24.49,59.33-70.23,59.33Zm30.24-22.42c32.24,0,42.49-15.65,42.49-36.91,0-20.79-10.25-36.43-42.49-36.43h-61v38.53c0,17.29,5,34.81,32,34.81Z"></path></svg> 